<svg width="180" height="180" viewBox="0 0 180 180" fill="none" xmlns="http://www.w3.org/2000/svg">
  <rect width="180" height="180" rx="40" fill="#f5f4f1"/>
  <polygon points="90,30 126,48 90,66 54,48" fill="#0a0a0a"/>
  <polygon points="90,66 116,56 116,76 90,84" fill="#0a0a0a" opacity="0.35"/>
  <line x1="126" y1="48" x2="126" y2="68" stroke="#0a0a0a" stroke-width="3" stroke-linecap="round"/>
  <circle cx="126" cy="73" r="5" fill="#0a0a0a"/>
  <circle cx="62"  cy="112" r="6.5" fill="#0a0a0a" opacity="0.9"/>
  <circle cx="90"  cy="124" r="6.5" fill="#0a0a0a" opacity="0.9"/>
  <circle cx="118" cy="112" r="6.5" fill="#0a0a0a" opacity="0.9"/>
  <circle cx="46"  cy="98"  r="5"   fill="#0a0a0a" opacity="0.55"/>
  <circle cx="134" cy="98"  r="5"   fill="#0a0a0a" opacity="0.55"/>
  <line x1="62"  y1="112" x2="90"  y2="124" stroke="#0a0a0a" stroke-width="1.8" stroke-opacity="0.65"/>
  <line x1="90"  y1="124" x2="118" y2="112" stroke="#0a0a0a" stroke-width="1.8" stroke-opacity="0.65"/>
  <line x1="46"  y1="98"  x2="62"  y2="112" stroke="#0a0a0a" stroke-width="1.8" stroke-opacity="0.55"/>
  <line x1="134" y1="98"  x2="118" y2="112" stroke="#0a0a0a" stroke-width="1.8" stroke-opacity="0.55"/>
  <line x1="62"  y1="112" x2="90"  y2="84"  stroke="#0a0a0a" stroke-width="1.3" stroke-opacity="0.25"/>
  <line x1="118" y1="112" x2="90"  y2="84"  stroke="#0a0a0a" stroke-width="1.3" stroke-opacity="0.25"/>
  <line x1="46"  y1="98"  x2="90"  y2="124" stroke="#0a0a0a" stroke-width="1.1" stroke-opacity="0.15"/>
  <line x1="134" y1="98"  x2="90"  y2="124" stroke="#0a0a0a" stroke-width="1.1" stroke-opacity="0.15"/>
  <line x1="46"  y1="98"  x2="118" y2="112" stroke="#0a0a0a" stroke-width="1"   stroke-opacity="0.13"/>
  <line x1="134" y1="98"  x2="62"  y2="112" stroke="#0a0a0a" stroke-width="1"   stroke-opacity="0.13"/>
</svg>
